<?xml version="1.0" standalone="no"?>
<!DOCTYPE svg PUBLIC "-//W3C//DTD SVG 20010904//EN"
 "http://www.w3.org/TR/2001/REC-SVG-20010904/DTD/svg10.dtd">
<svg version="1.0" xmlns="http://www.w3.org/2000/svg"
 width="2560.000000pt" height="2560.000000pt" viewBox="0 0 2560.000000 2560.000000"
 preserveAspectRatio="xMidYMid meet">
<metadata>
Created by potrace 1.14, written by Peter Selinger 2001-2017
</metadata>
<g transform="translate(0.000000,2560.000000) scale(0.100000,-0.100000)"
fill="#000000" stroke="none">
<path d="M7728 23404 c-2 -1 -57 -6 -123 -9 -66 -3 -135 -8 -155 -10 -19 -2
-73 -7 -120 -10 -47 -4 -92 -9 -101 -10 -9 -2 -52 -6 -95 -10 -43 -4 -81 -9
-84 -10 -3 -2 -34 -6 -70 -10 -36 -4 -74 -9 -85 -11 -11 -2 -31 -6 -45 -8 -14
-3 -43 -8 -65 -11 -22 -3 -51 -7 -65 -10 -67 -13 -87 -16 -111 -20 -55 -8
-369 -76 -464 -100 -55 -14 -109 -28 -119 -30 -98 -22 -604 -180 -661 -205
-11 -5 -74 -29 -140 -54 -280 -103 -726 -309 -1000 -461 -781 -436 -1424 -938
-2035 -1591 -74 -79 -256 -288 -300 -344 -19 -25 -40 -49 -46 -55 -26 -24
-259 -334 -335 -445 -24 -36 -46 -67 -49 -70 -14 -14 -188 -284 -252 -390
-260 -433 -440 -804 -641 -1320 -33 -85 -149 -430 -183 -545 -34 -118 -111
-411 -130 -500 -9 -38 -17 -77 -19 -85 -4 -18 -45 -226 -51 -258 -14 -80 -30
-178 -39 -242 -3 -25 -8 -52 -10 -60 -2 -8 -7 -43 -10 -77 -3 -34 -7 -70 -9
-80 -2 -10 -7 -49 -10 -88 -4 -38 -9 -81 -11 -95 -7 -53 -22 -260 -30 -440 -8
-158 -8 -554 0 -685 12 -210 16 -271 20 -325 3 -30 8 -80 10 -110 3 -30 7 -71
10 -90 2 -19 7 -55 10 -80 2 -25 7 -65 10 -90 3 -25 7 -56 10 -70 2 -14 7 -45
10 -70 3 -25 12 -81 20 -125 8 -44 17 -95 20 -112 6 -34 45 -231 49 -248 2 -5
6 -28 11 -50 17 -88 86 -359 130 -510 95 -324 250 -752 362 -993 18 -39 33
-74 33 -77 0 -3 40 -87 89 -187 316 -646 668 -1184 1136 -1738 177 -210 444
-488 655 -680 51 -47 102 -94 114 -105 23 -22 163 -142 266 -227 275 -228 744
-551 1045 -719 24 -14 30 -23 28 -47 -2 -16 -35 -148 -74 -293 -38 -145 -72
-271 -74 -279 -6 -30 -157 -596 -172 -649 -27 -96 -1 -179 72 -230 45 -30 119
-34 198 -10 34 11 71 21 82 23 11 2 144 38 295 79 151 42 309 84 350 95 41 11
136 37 210 57 74 20 142 38 150 40 8 2 139 38 290 79 151 42 284 78 295 80 11
2 52 13 90 24 39 11 183 51 320 88 138 36 297 80 355 96 58 16 112 31 121 33
19 4 226 60 279 75 46 13 401 110 420 115 176 41 483 132 512 152 69 46 95
140 63 221 -12 28 -292 312 -1076 1092 -1876 1865 -1754 1746 -1805 1759 -81
21 -164 -9 -204 -73 -15 -25 -121 -396 -155 -546 -2 -8 -13 -49 -24 -90 -11
-41 -39 -145 -61 -230 -65 -248 -91 -344 -95 -358 -3 -8 -50 18 -132 74 -120
80 -443 320 -488 361 -11 10 -47 40 -80 68 -133 110 -239 209 -425 395 -245
245 -378 394 -564 635 -42 55 -83 107 -89 115 -81 101 -417 614 -417 635 0 3
-11 22 -23 43 -107 171 -308 587 -414 857 -112 287 -249 711 -277 860 -2 11
-13 58 -25 105 -23 96 -78 367 -84 420 -3 19 -9 64 -15 100 -6 36 -13 90 -17
120 -3 30 -8 66 -10 80 -2 14 -7 48 -10 75 -55 519 -46 1100 25 1600 5 39 12
90 15 115 3 25 7 52 10 60 2 8 7 35 10 60 8 54 57 297 80 395 9 39 18 78 20
88 24 116 203 688 235 748 6 11 13 28 15 37 6 31 120 300 187 442 288 613 711
1240 1158 1715 79 85 357 361 396 395 16 13 70 60 119 103 276 244 619 494
960 699 562 339 1228 615 1835 760 47 11 92 22 100 24 51 13 416 84 456 89 27
3 56 7 64 10 14 3 39 7 158 21 26 3 64 7 85 10 21 3 61 7 90 10 29 2 72 6 97
9 276 25 927 25 1115 0 17 -3 62 -7 100 -10 79 -6 198 -20 295 -36 36 -5 76
-11 90 -13 29 -4 63 -10 210 -38 58 -11 116 -22 130 -24 263 -50 877 -239
1087 -335 24 -10 45 -19 48 -19 3 0 27 -10 53 -21 26 -12 61 -27 77 -34 140
-61 443 -211 535 -265 30 -18 64 -37 75 -42 24 -11 25 -11 188 -111 241 -147
486 -321 717 -506 95 -77 158 -131 315 -271 155 -138 426 -422 640 -671 208
-241 535 -714 698 -1009 138 -248 269 -513 342 -690 14 -36 32 -78 40 -95 36
-80 109 -278 175 -475 105 -315 203 -717 255 -1050 3 -19 7 -46 10 -60 2 -14
7 -45 10 -70 4 -25 8 -56 10 -70 2 -14 6 -47 9 -75 4 -27 9 -68 11 -90 3 -22
7 -74 10 -115 3 -41 8 -91 10 -110 13 -104 18 -443 17 -1340 -1 -547 -1 -1002
-1 -1010 -1 -13 -227 -15 -1976 -15 -1086 0 -1976 2 -1976 5 -1 3 -2 563 -3
1245 -2 1185 -3 1242 -20 1278 -21 42 -65 79 -111 94 -17 5 -240 9 -530 8
-464 -1 -503 -2 -538 -19 -42 -21 -79 -65 -94 -111 -10 -32 -10 -5969 0 -6060
3 -27 8 -95 12 -150 3 -55 8 -118 10 -140 2 -22 7 -71 10 -110 4 -38 8 -81 10
-95 2 -14 7 -52 10 -85 6 -59 10 -88 20 -143 3 -16 7 -44 9 -63 7 -52 40 -251
51 -309 3 -14 7 -34 9 -45 2 -11 12 -54 21 -95 8 -41 20 -97 25 -124 6 -27 15
-68 21 -90 6 -23 12 -48 14 -56 8 -38 57 -224 80 -305 15 -49 28 -98 30 -107
2 -9 40 -124 83 -255 195 -581 451 -1132 770 -1658 103 -169 295 -460 364
-550 5 -5 54 -71 110 -145 88 -118 271 -346 325 -405 10 -11 50 -56 88 -100
183 -209 499 -524 695 -695 41 -36 81 -71 88 -77 27 -26 280 -232 362 -294
282 -217 684 -482 975 -641 158 -87 227 -123 380 -198 259 -126 690 -310 728
-310 7 0 17 -4 23 -9 12 -12 516 -176 600 -196 11 -2 80 -20 154 -40 141 -37
523 -119 600 -130 25 -3 52 -8 60 -10 8 -2 38 -6 65 -10 28 -3 75 -10 105 -15
56 -10 177 -24 285 -35 33 -3 74 -8 90 -10 223 -29 1235 -28 1470 1 22 3 58 7
80 9 72 6 159 16 220 25 33 5 83 12 110 16 28 3 59 8 70 10 11 2 40 7 65 10
25 3 54 8 65 10 11 2 34 7 50 9 81 15 283 55 296 59 8 3 25 7 39 10 40 7 211
47 266 62 28 8 61 17 73 19 37 7 361 105 451 137 47 16 90 30 95 32 13 4 36
12 100 36 28 10 88 32 135 50 47 17 94 35 105 40 11 5 63 27 115 48 52 22 138
58 190 82 108 47 548 266 565 280 7 6 34 22 60 36 69 36 123 67 180 102 28 17
75 45 105 63 115 67 530 349 640 436 216 169 300 238 434 353 257 221 660 628
832 840 16 19 35 42 43 50 19 19 236 291 279 350 18 25 58 79 89 120 109 147
473 712 473 734 0 1 28 52 61 112 226 403 464 960 607 1419 64 205 125 424
138 494 3 14 7 28 10 33 3 4 7 16 9 25 1 10 17 83 33 163 29 137 56 274 66
330 2 14 7 41 10 60 3 19 8 49 11 65 5 32 33 237 40 295 2 19 7 53 9 75 3 22
8 72 11 110 3 39 8 88 10 110 2 22 7 92 10 155 4 63 8 142 11 175 4 68 4 576
-1 675 -3 67 -13 224 -21 320 -6 85 -23 240 -30 282 -2 15 -6 49 -9 75 -3 27
-7 59 -9 73 -3 14 -8 43 -11 65 -6 48 -16 112 -21 140 -2 11 -7 40 -10 65 -3
25 -8 48 -10 51 -1 3 -7 32 -13 65 -5 32 -20 104 -31 159 -12 55 -24 111 -26
125 -8 43 -83 329 -124 470 -80 279 -251 748 -355 975 -15 33 -34 76 -42 95
-35 80 -197 404 -261 521 -177 323 -396 664 -614 958 -72 97 -134 178 -137
181 -4 3 -31 36 -61 75 -64 81 -215 260 -276 325 -23 25 -70 76 -105 114 -166
180 -420 425 -614 591 -38 33 -72 62 -75 66 -3 3 -52 43 -110 90 -58 46 -107
87 -110 90 -3 3 -77 59 -165 125 -198 147 -452 316 -652 436 -84 50 -153 95
-153 100 0 5 21 87 46 181 43 162 91 343 99 377 3 8 12 42 21 75 9 33 17 67
19 75 2 8 19 74 38 145 128 475 128 476 90 548 -19 37 -33 49 -87 78 -51 27
-83 24 -301 -36 -93 -26 -176 -48 -185 -50 -8 -2 -105 -29 -215 -59 -324 -88
-838 -228 -855 -231 -8 -2 -55 -15 -105 -29 -91 -26 -776 -212 -1315 -357
-282 -76 -334 -90 -453 -123 -62 -18 -141 -38 -144 -38 -2 1 -17 -4 -35 -9
-18 -6 -67 -19 -108 -30 -214 -57 -237 -68 -279 -139 -27 -45 -28 -118 -2
-168 17 -32 771 -787 2469 -2470 191 -189 359 -351 375 -359 75 -38 189 -10
234 58 17 26 96 293 118 398 2 9 20 77 40 151 20 74 38 142 40 150 1 8 8 35
15 60 7 25 14 52 16 60 2 8 20 76 40 150 20 74 37 140 38 145 12 59 32 115 41
115 16 0 253 -163 415 -285 140 -105 343 -272 453 -372 126 -115 465 -461 556
-568 52 -60 105 -124 120 -140 139 -160 531 -710 531 -744 0 -6 4 -11 9 -11 5
0 11 -8 15 -17 3 -10 24 -47 46 -82 22 -34 40 -65 40 -67 0 -2 13 -25 29 -52
148 -252 325 -627 446 -947 47 -124 140 -395 150 -435 2 -8 17 -62 34 -120 26
-92 67 -247 76 -290 24 -106 37 -169 41 -190 2 -14 9 -45 14 -70 11 -51 46
-263 55 -330 5 -40 8 -65 20 -150 2 -14 6 -54 10 -90 3 -36 8 -83 10 -105 15
-155 20 -291 19 -580 0 -295 -4 -415 -19 -580 -14 -153 -14 -148 -31 -289 -3
-27 -7 -56 -9 -65 -1 -9 -6 -41 -10 -71 -4 -30 -9 -64 -11 -75 -2 -11 -11 -58
-19 -105 -8 -47 -17 -94 -19 -105 -9 -42 -38 -181 -42 -197 -2 -10 -6 -28 -9
-39 -93 -425 -291 -977 -511 -1426 -103 -211 -355 -652 -415 -727 -5 -6 -34
-49 -65 -96 -54 -80 -229 -322 -266 -365 -9 -11 -51 -63 -94 -115 -529 -648
-1201 -1207 -1954 -1625 -100 -56 -434 -225 -444 -225 -3 0 -33 -13 -68 -29
-259 -122 -817 -317 -1045 -366 -10 -2 -63 -15 -118 -29 -55 -13 -147 -34
-205 -45 -58 -12 -129 -26 -158 -32 -29 -6 -69 -13 -90 -15 -20 -3 -48 -7 -62
-9 -48 -10 -406 -54 -480 -59 -326 -26 -943 -26 -1100 -2 -14 2 -61 7 -105 11
-77 6 -279 30 -340 41 -16 3 -46 7 -65 10 -19 2 -57 9 -85 14 -27 6 -63 12
-80 14 -16 3 -50 9 -75 15 -25 5 -56 12 -70 15 -14 2 -74 16 -135 29 -96 22
-143 34 -300 77 -90 25 -378 116 -410 130 -11 5 -76 30 -145 56 -69 25 -143
55 -166 65 -22 10 -63 27 -90 38 -351 139 -1021 525 -1319 758 -6 4 -48 37
-95 73 -100 76 -89 67 -255 206 -161 134 -197 168 -405 374 -740 733 -1290
1605 -1645 2604 -45 127 -150 471 -171 558 -2 10 -6 26 -9 35 -9 36 -74 329
-79 358 -3 17 -8 41 -11 55 -3 14 -8 41 -11 60 -2 19 -9 58 -14 85 -12 64 -14
73 -36 245 -2 14 -6 50 -9 80 -4 30 -8 66 -10 80 -5 35 -18 187 -31 375 -7 91
-13 2181 -7 2200 4 12 3937 14 3949 3 4 -4 7 -562 7 -1240 0 -851 3 -1241 10
-1258 21 -49 49 -81 90 -102 41 -22 49 -22 537 -23 272 -1 511 3 530 8 43 12
76 37 109 85 l26 37 -1 2935 c-1 2605 -4 3158 -19 3290 -2 19 -6 69 -10 110
-3 41 -8 91 -10 110 -2 19 -7 62 -10 95 -3 33 -8 71 -10 85 -2 14 -7 50 -10
80 -3 30 -8 66 -10 80 -15 97 -36 229 -40 250 -3 14 -8 41 -11 60 -3 19 -7 42
-9 50 -2 8 -7 31 -10 50 -14 88 -51 252 -100 445 -205 809 -517 1551 -958
2275 -79 130 -293 451 -347 521 -19 26 -44 59 -55 75 -52 73 -245 318 -318
403 -45 53 -91 107 -102 120 -271 324 -753 779 -1150 1087 -229 178 -601 434
-767 529 -9 6 -85 49 -167 97 -281 164 -656 348 -961 470 -209 84 -284 112
-435 163 -145 49 -385 123 -420 130 -11 3 -79 20 -152 39 -72 20 -143 37 -157
40 -15 3 -34 7 -44 10 -9 3 -28 7 -42 10 -14 2 -58 12 -97 20 -40 9 -85 18
-100 21 -16 3 -39 7 -53 10 -20 4 -119 21 -235 40 -11 1 -36 6 -55 9 -19 3
-51 8 -70 10 -19 3 -57 7 -85 11 -27 3 -63 8 -80 10 -16 2 -57 7 -90 10 -33 3
-76 8 -95 10 -19 2 -78 7 -130 10 -52 4 -115 9 -140 12 -52 5 -797 12 -802 7z"/>
<path d="M6170 19444 c-126 -72 -425 -355 -581 -549 -176 -219 -309 -468 -393
-733 -29 -91 -74 -291 -82 -359 -3 -26 -8 -59 -11 -73 -3 -14 -7 -108 -9 -210
-5 -259 22 -434 104 -660 3 -8 6 -19 8 -25 17 -66 191 -410 274 -545 203 -328
317 -599 357 -846 10 -63 10 -331 0 -409 -8 -64 -9 -74 -26 -145 -5 -25 -12
-56 -15 -70 -3 -14 -7 -35 -10 -47 -4 -13 -8 -31 -10 -42 -8 -37 -69 -230
-130 -416 -123 -370 -147 -461 -141 -534 4 -52 11 -61 44 -61 63 0 209 105
403 290 177 167 317 355 415 555 41 84 95 207 99 225 0 3 3 12 7 20 32 83 80
298 94 427 10 86 10 359 1 438 -23 190 -82 374 -193 600 -71 145 -98 194 -189
355 -83 145 -94 166 -149 275 -138 276 -189 432 -215 655 -12 105 -4 276 18
374 5 23 11 55 14 72 9 50 71 230 121 354 56 138 122 297 135 325 18 38 51
135 48 138 -2 2 2 10 8 18 6 8 28 66 47 129 128 411 114 564 -43 474z"/>
<path d="M7620 18852 c-81 -54 -325 -319 -456 -494 -195 -262 -320 -550 -353
-812 -11 -90 -11 -264 0 -336 16 -107 21 -126 49 -212 30 -89 126 -290 141
-296 5 -2 9 -8 9 -14 0 -12 91 -147 248 -367 173 -244 296 -491 318 -639 3
-20 8 -44 11 -52 12 -32 11 -279 -2 -371 -16 -111 -48 -269 -75 -369 -7 -25
-13 -52 -15 -60 -2 -8 -15 -60 -30 -115 -29 -110 -30 -114 -46 -200 -33 -174
-15 -215 73 -172 97 48 382 366 501 557 100 162 192 395 217 550 7 41 14 84
16 95 6 29 5 232 -1 285 -20 164 -92 343 -212 525 -49 74 -234 326 -273 372
-23 27 -140 213 -172 273 -55 105 -112 271 -126 375 -8 56 -8 209 1 280 13
116 21 147 127 470 43 132 87 276 99 320 50 200 66 358 41 404 -13 26 -55 27
-90 3z"/>
<path d="M4323 18799 c-45 -22 -159 -130 -273 -259 -41 -46 -83 -93 -93 -105
-10 -11 -49 -60 -86 -110 -261 -349 -379 -665 -380 -1010 0 -71 5 -152 10
-180 5 -27 12 -63 15 -78 2 -16 18 -70 34 -120 54 -167 108 -260 438 -738 165
-238 260 -446 288 -624 10 -68 12 -267 3 -335 -11 -80 -20 -142 -23 -155 -2
-5 -6 -28 -10 -50 -5 -22 -17 -76 -28 -120 -11 -44 -21 -87 -23 -95 -2 -8 -8
-35 -15 -60 -7 -25 -14 -52 -15 -60 -2 -8 -13 -53 -25 -100 -12 -47 -24 -94
-26 -105 -2 -11 -6 -31 -9 -45 -10 -40 -14 -136 -8 -159 10 -40 80 -21 151 42
69 62 232 233 287 302 132 164 215 310 303 530 49 122 81 301 82 455 1 113 -7
177 -36 289 -47 180 -128 324 -354 626 -69 94 -143 195 -163 225 -20 30 -40
60 -44 66 -42 58 -120 226 -152 327 -38 118 -46 178 -46 317 1 172 18 248 130
590 83 253 108 338 125 425 6 33 15 76 19 95 10 47 14 175 6 200 -11 35 -38
41 -82 19z"/>
<path d="M20179 12138 c-14 -13 -38 -41 -54 -63 -17 -22 -34 -45 -40 -51 -5
-6 -23 -28 -40 -48 -69 -88 -248 -313 -263 -331 -10 -11 -114 -142 -232 -290
-118 -148 -222 -279 -232 -290 -9 -11 -161 -202 -339 -425 -272 -343 -354
-446 -462 -580 -7 -8 -39 -49 -72 -90 -33 -41 -65 -82 -72 -90 -7 -8 -35 -44
-63 -80 -29 -36 -65 -81 -81 -101 -397 -489 -839 -1055 -839 -1074 0 -34 18
-69 42 -84 17 -11 167 -13 744 -13 l723 0 -11 -21 c-8 -16 -74 -197 -92 -252
-2 -5 -6 -17 -9 -25 -3 -8 -36 -98 -73 -200 -149 -417 -287 -801 -354 -985
-13 -33 -42 -114 -65 -180 -24 -66 -80 -221 -125 -345 -45 -124 -94 -261 -110
-305 -15 -44 -44 -123 -63 -175 -44 -120 -40 -153 22 -184 52 -26 83 -6 188
127 54 67 106 131 115 142 9 11 90 112 179 225 90 113 168 210 174 217 5 7 15
18 20 25 124 157 521 654 525 658 3 3 19 23 35 45 31 42 53 70 70 89 6 6 127
157 270 336 392 492 529 663 542 680 7 8 108 134 224 280 116 146 218 274 227
285 9 11 51 63 92 115 41 52 77 97 80 100 3 3 18 23 35 45 16 22 34 45 40 51
43 47 58 72 62 105 5 33 1 42 -25 69 l-30 30 -721 0 c-397 0 -721 3 -721 6 0
6 67 192 95 264 13 32 97 266 200 555 24 66 61 170 83 230 22 61 52 144 67
185 15 41 64 179 110 305 109 300 167 462 222 615 25 69 67 187 94 262 61 167
62 173 43 210 -26 50 -95 63 -135 26z"/>
</g>
</svg>
